<?xml version="1.0" encoding="utf-8"?>
<svg width="225" height="52" viewBox="0 0 225 52" fill="none" xmlns="http://www.w3.org/2000/svg">
  <g clip-path="url(#clip0_2636_1488)">
    <mask id="mask0_2636_1488" style="mask-type:luminance" maskUnits="userSpaceOnUse" x="5" y="0" width="53" height="52">
      <path d="M57.9382 0H5.93823V52H57.9382V0Z" fill="white"/>
    </mask>
    <g mask="url(#mask0_2636_1488)">
      <path d="M57.9382 9.9292V42.0706C57.9382 47.5544 53.4928 51.9998 48.009 51.9998H15.8675C10.3837 51.9998 5.93823 47.5544 5.93823 42.0706V9.9292C5.93823 4.44542 10.3837 -0.000244141 15.8675 -0.000244141H48.009C53.4928 -0.000244141 57.9382 4.44542 57.9382 9.9292Z" fill="url(#paint0_linear_2636_1488)"/>
      <path d="M37.9087 27.8576C38.2105 26.8033 38.2105 25.6855 37.9087 24.6313H40.4387C40.5211 24.6316 40.6028 24.6157 40.679 24.5843C40.7551 24.5529 40.8244 24.5068 40.8826 24.4485C40.9409 24.3902 40.987 24.321 41.0184 24.2448C41.0498 24.1686 41.0658 24.087 41.0654 24.0046C41.0692 23.9494 41.0613 23.8941 41.0422 23.8421C39.7192 18.9214 34.6592 15.9969 29.7385 17.3199C24.7945 18.6429 21.8932 23.7029 23.2161 28.6236C23.743 30.5838 24.9022 32.3152 26.5138 33.5491C28.1255 34.783 30.0994 35.4504 32.1292 35.4475H37.0731C37.2104 35.4469 37.3465 35.4736 37.4735 35.5258C37.6005 35.5781 37.7158 35.655 37.8129 35.7521C37.91 35.8492 37.987 35.9646 38.0393 36.0916C38.0915 36.2186 38.1182 36.3546 38.1176 36.492V37.6525C38.1182 37.7898 38.0916 37.9259 38.0393 38.0529C37.987 38.1799 37.9101 38.2953 37.813 38.3924C37.7159 38.4895 37.6005 38.5664 37.4735 38.6187C37.3465 38.671 37.2104 38.6976 37.0731 38.697H32.0363C25.189 38.697 19.6648 33.1497 19.6648 26.3023V26.1632C19.688 19.2696 25.2819 13.7222 32.1523 13.7222C39.046 13.7455 44.5934 19.3392 44.5703 26.2096C44.5741 26.4265 44.5664 26.6435 44.5471 26.8595C44.5352 27.1223 44.4223 27.3703 44.2321 27.5519C44.0418 27.7335 43.7888 27.8347 43.5258 27.8344L37.9087 27.8576Z" fill="white"/>
      <path d="M38.2801 26.2326C38.2801 29.5518 35.5875 32.2442 32.2684 32.2442C31.3347 32.2449 30.4138 32.0269 29.5795 31.6077C28.7452 31.1885 28.0206 30.5798 27.4637 29.8303C27.3013 29.5982 27.3477 29.2732 27.5566 29.1108C27.6448 29.0488 27.7504 29.0163 27.8582 29.018H31.781L32.7094 28.0896V24.3759L31.781 23.4475H27.8351C27.7001 23.4463 27.5709 23.3921 27.4754 23.2966C27.3799 23.2011 27.3257 23.0719 27.3245 22.9369C27.3245 22.8208 27.3709 22.728 27.4173 22.6352C29.3904 19.966 33.1504 19.4321 35.8197 21.405C37.3981 22.5424 38.2801 24.3296 38.2801 26.2329" fill="white"/>
      <path d="M42.5876 35.5449C43.123 35.5453 43.6364 35.7582 44.015 36.1368C44.3937 36.5154 44.6065 37.0288 44.6069 37.5643V37.9588C44.6082 38.0567 44.5899 38.1539 44.553 38.2446C44.5161 38.3353 44.4615 38.4177 44.3922 38.4869C44.323 38.5561 44.2406 38.6108 44.1499 38.6476C44.0592 38.6845 43.9621 38.7029 43.8642 38.7016H41.3109C41.213 38.7029 41.1159 38.6845 41.0252 38.6476C40.9345 38.6108 40.8521 38.5561 40.7829 38.4869C40.7136 38.4177 40.659 38.3353 40.6221 38.2446C40.5852 38.1539 40.5669 38.0567 40.5682 37.9588V37.5643C40.5686 37.0288 40.7815 36.5154 41.1601 36.1368C41.5387 35.7582 42.0521 35.5453 42.5876 35.5449Z" fill="white"/>
      <path d="M42.5838 32.4116C42.8448 32.4116 43.1 32.4889 43.317 32.6339C43.5341 32.7788 43.7033 32.9849 43.8032 33.226C43.9031 33.4671 43.9293 33.7325 43.8784 33.9885C43.8275 34.2444 43.7019 34.4796 43.5173 34.6642C43.3328 34.8488 43.0977 34.9745 42.8417 35.0254C42.5857 35.0764 42.3204 35.0502 42.0792 34.9504C41.8381 34.8505 41.632 34.6814 41.487 34.4644C41.342 34.2474 41.2646 33.9922 41.2646 33.7312C41.2414 33.0136 41.8432 32.4116 42.5838 32.4116Z" fill="white"/>
    </g>
  </g>
  <defs>
    <linearGradient id="paint0_linear_2636_1488" x1="5.93823" y1="23.9718" x2="57.9382" y2="24.2838" gradientUnits="userSpaceOnUse">
      <stop stop-color="#1F4AC8"/>
      <stop offset="1" stop-color="#163890"/>
    </linearGradient>
    <clipPath id="clip0_2636_1488">
      <rect x="5.93823" width="52" height="52" rx="10" fill="white"/>
    </clipPath>
  </defs>
  <text style="fill: rgb(51, 51, 51); font-family: Arial, sans-serif; font-size: 28px; font-weight: 700; white-space: pre;" x="68.704" y="29.314" transform="matrix(1.03371, 0, 0, 1, -2.491263, -1.525841)">Khidma +</text>
  <text style="white-space: pre; fill: rgb(51, 51, 51); font-family: Arial, sans-serif; font-size: 28px;" x="73.746" y="41.884" transform="matrix(0.414978, 0, 0, 0.378328, 40.390233, 29.605078)">Home Service</text>
</svg>